<?xml version="1.0" encoding="UTF-8"?>
<svg id="processor" width="1257pt" height="1280pt" version="1.0" viewBox="0 0 1257 1280" xmlns="http://www.w3.org/2000/svg">
 <g transform="translate(0 1280) scale(.1 -.1)" fill="#5b6057">
  <path d="m7484 12789c-67-19-123-121-109-198 15-81 61-135 125-148l30-6-2-2120-3-2121-47 3-48 3v-166-166h-195-195l-2 163-3 162-110 2-3 1128c-2 1114-2 1127 18 1152 27 35 43 99 35 142-10 57-50 116-91 136-49 23-148 17-186-10-65-48-90-154-55-236 20-50 76-90 132-97l45-5-2-1104-3-1105-85-2-85-1-3-162-2-163h-195-194v163 162h-83-83l-10 1440-542 3-543 2v755 755l28 42c23 36 27 52 27 113 0 63-3 76-28 108-38 50-75 67-145 67-45 0-67-6-93-23-67-44-98-153-65-230 17-41 76-93 115-102l31-7v-789-789h555 555v-672-673h-52-53l-3-162-2-163h-195-195l-2 163-3 162h-48-47v418 417h-633-634l-24 26c-37 40-73 54-137 54-45 0-67-5-93-23-110-74-104-253 11-314 109-58 238 3 257 122l6 35h553 554l-2-366-3-367-140-2-3-162-2-163h-195-195l-2 163-3 162h-30l-30 1-3 182-2 182h-1093-1092l-50 26c-123 63-255-19-255-159 0-62 19-105 63-144 93-82 246-32 279 91l12 46h1003 1004l-6-222-95-1-95-2-3-162-2-163h-240-240v-345-345h-165-165v-40-40h-1038-1039l-33 41c-94 117-272 81-310-63-21-77 10-159 79-205 26-17 48-23 91-23 67 0 111 25 149 83l24 37h1039 1038v-90-90h165 165v-195-195h-165-165v-70-70h-1610-1610v930 930l25 16c41 27 68 96 63 165-5 62-23 97-69 132-56 41-152 41-208 0-58-42-85-139-60-214 13-38 63-96 91-105 17-5 18-51 20-997l3-992 1677-3 1678-2v-60-60h165 165v-195-195h-164-165l-3-47-3-48-1037-3-1036-2-62-78v-740-740l-35-6c-110-21-168-180-101-278 35-51 70-71 134-76 100-7 158 35 184 133 13 50 0 125-28 156-12 13-14 125-14 753 0 489-3 744-10 757-11 19 4 19 1e3 19h1010v-95-95h165 165v-285-285h300 300v-165-165h40 40v-779c0-772 0-779-21-805l-20-26h-657l-657 1-20 31c-30 48-78 71-145 71-104 0-173-71-174-178-1-197 249-255 334-78l25 53h674 673l118 102v804 804h90 90v165 165h195 195v-161c0-152 1-161 20-166 20-5 20-14 20-1818v-1814l-26-20c-26-21-36-21-550-21-330 0-524 4-524 10 0 18-65 83-97 96-80 34-178 2-221-71-33-58-28-157 11-209 41-53 78-69 151-64 74 4 116 30 143 88l18 39 541 1h541l148 106 3 1837 2 1836 108 3 107 3 3 163 2 162h195 195v-165-165h50 50v-1520-1519l-42-12c-110-29-154-161-94-277 32-62 117-93 197-72 116 31 163 186 88 291-18 26-19 71-19 1568v1541h80 80v165 165h195 195v-165-165h80 80v-1995c0-1961 0-1994-19-2005-13-6-241-10-671-10-647 0-651 0-679 21-78 57-194 37-255-44-32-43-34-150-4-202 41-71 143-104 221-71 44 18 95 78 103 121l6 35h650 651l68 56 69 56v2019 2019h45 45v165 165h195 195l2-163 3-162h195 195l3 163 2 162h195 195v-165-165h195 195v165 165h195 195l2-162 3-163 192-3 193-2 2 162 3 163 393 3 392 2v490 490h160 160v60 60h660 660v-770-770l-39-24c-77-49-103-161-58-247 58-109 218-122 293-23 26 34 29 45 29 114s-3 80-29 114c-16 21-44 44-62 52l-34 14-2 838-3 837-707 3-708 2v68 67l-320-6v201 200h160 159l3 88 3 87 801 3 801 2 18-41c61-134 254-130 316 6 65 143-52 291-201 255-44-11-110-59-110-81 0-5-344-8-812-7l-813 3-3 38-3 37h-160-159v530 530h-450-450l-2 163c-2 123-6 161-15 160-10-2-13 184-13 907v910h900 899l19-43c28-63 72-91 152-95 55-3 70 0 99 20 62 42 76 70 76 156 0 90-21 129-85 162-70 36-149 24-205-31l-31-29-964-2-965-3-3-975-2-975-250 6v-165-166h-197-198v163 162l-90 2-3 1581-2 1582 727 2 727 3-6 892 34 24c46 33 65 58 78 106 31 109-40 220-148 231-65 6-114-11-151-53-79-90-56-233 46-287l43-23v-398-399l-740 3-740 2-3-1632-2-1633-80-1-80-2-3-162-2-163h-195-195l-2 163-3 162-73 1-72 2v2137c0 2120 0 2137 20 2165 31 44 44 117 31 168-28 103-126 153-237 121z"/>
  <path d="m7670 4298c0-2-1-621-3-1377l-2-1374-44-13c-80-23-123-83-124-173 0-77 32-134 95-167 39-20 122-18 167 6 98 49 120 206 41 287l-30 31-2 1388-3 1389-47 3c-27 2-48 2-48 0z"/>
  <path d="m8510 2775v-1525h873l872-1 20-41c31-65 63-83 150-83 59 0 79 4 102 21 104 77 95 255-17 312-25 12-62 22-85 22-51-1-119-31-140-64l-17-26h-809-809l-2 1453-3 1452-67 3-68 3v-1526z"/>
  <path d="m9255 4288c-3-7-4-495-3-1083l3-1070 932-5 933-5 22-45c33-65 76-90 153-90 68 0 110 21 149 73 32 43 34 150 4 202-41 71-143 104-221 71-32-13-97-78-97-96 0-6-323-10-885-10h-885l-2 1033-3 1032-48 3c-32 2-49-1-52-10z"/>
 </g>
</svg>
